<?xml version="1.0" encoding="UTF-8" standalone="no"?>
<!DOCTYPE svg PUBLIC "-//W3C//DTD SVG 1.1//EN" "http://www.w3.org/Graphics/SVG/1.1/DTD/svg11.dtd">
<svg width="100%" height="100%" viewBox="0 0 790 160" version="1.1" xmlns="http://www.w3.org/2000/svg" xmlns:xlink="http://www.w3.org/1999/xlink" xml:space="preserve" xmlns:serif="http://www.serif.com/" style="fill-rule:evenodd;clip-rule:evenodd;stroke-linejoin:round;stroke-miterlimit:2;">
    <g transform="matrix(1,0,0,1,-1075.31,-334.045)">
        <g>
            <g transform="matrix(1,0,0,1,904.345,0)">
                <path d="M960,373.796C960,351.857 942.188,334.045 920.249,334.045L210.715,334.045C188.775,334.045 170.963,351.857 170.963,373.796L170.963,453.299C170.963,475.238 188.775,493.05 210.715,493.05L920.249,493.05C942.188,493.05 960,475.238 960,453.299L960,373.796Z" style="fill:rgb(0,180,255);"/>
            </g>
            <g transform="matrix(6.31558,0,0,6.31558,-2279.32,-2155.86)">
                <text x="541.148px" y="409.821px" style="font-family:'JosefinSans-Medium', 'Josefin Sans';font-weight:500;font-size:7.99px;fill:white;">P<tspan x="547.396px 554.987px 562.298px 569.888px 576.536px 584.11px 593.546px 599.794px 606.929px 613.577px 621.854px 629.085px 635.733px 640.215px " y="409.821px 409.821px 409.821px 409.821px 409.821px 409.821px 409.821px 409.821px 409.821px 409.821px 409.821px 409.821px 409.821px 409.821px ">ARASYMPATHETIC</tspan></text>
            </g>
        </g>
    </g>
</svg>
