<?xml version="1.0" encoding="UTF-8" standalone="no"?>
<!DOCTYPE svg PUBLIC "-//W3C//DTD SVG 1.1//EN" "http://www.w3.org/Graphics/SVG/1.1/DTD/svg11.dtd">
<svg width="100%" height="100%" viewBox="0 0 1719 921" version="1.1" xmlns="http://www.w3.org/2000/svg" xmlns:xlink="http://www.w3.org/1999/xlink" xml:space="preserve" xmlns:serif="http://www.serif.com/" style="fill-rule:evenodd;clip-rule:evenodd;stroke-linecap:round;stroke-miterlimit:1.2;">
    <g transform="matrix(1,0,0,1,-74.91,-71.342)">
        <g id="Layer2" transform="matrix(2.11263,0,0,2.11263,-300.994,-320.597)">
            <g transform="matrix(0.886319,0,0,0.886319,531.306,-38.5791)">
                <g transform="matrix(1,0,0,1,9.7443,-93.0867)">
                    <g>
                        <g transform="matrix(1,0,0,1,-82.1569,123.423)">
                            <path d="M474.423,407.8C474.423,358.262 434.205,318.044 384.667,318.044L342.995,318.044C293.458,318.044 253.239,358.262 253.239,407.8C253.239,457.337 293.458,497.555 342.995,497.555L384.667,497.555C434.205,497.555 474.423,457.337 474.423,407.8Z" style="fill:rgb(236,234,215);"/>
                            <g transform="matrix(1,0,0,1,-10.6654,2.10078)">
                                <clipPath id="_clip1">
                                    <path d="M485.088,405.699C485.088,356.161 444.87,315.943 395.333,315.943L353.661,315.943C304.123,315.943 263.905,356.161 263.905,405.699C263.905,455.236 304.123,495.455 353.661,495.455L395.333,495.455C444.87,495.455 485.088,455.236 485.088,405.699Z"/>
                                </clipPath>
                                <g clip-path="url(#_clip1)">
                                    <g transform="matrix(1.33814,0,0,1.25414,-109.31,-98.7767)">
                                        <path d="M284.279,342.171C285.937,343.829 320.089,378.117 325.78,383.809C329.792,387.82 330.758,398.901 323.766,399.17C316.775,399.439 316.775,401.859 316.775,405.085C316.775,408.312 321.615,403.472 324.842,411.539C328.069,419.606 324.035,436.278 335.329,436.278C342.051,436.278 338.287,426.487 340.169,416.189C342.051,405.892 350.116,406.161 363.831,406.161L363.831,398.901C363.831,398.901 345.684,396.833 340.438,391.587C335.192,386.34 300.103,342.246 292.305,336.731C284.619,331.295 280.17,338.062 284.279,342.171Z" style="fill:url(#_Radial2);"/>
                                    </g>
                                    <g transform="matrix(-1.33814,0,0,1.25414,863.401,-98.7767)">
                                        <path d="M284.279,342.171C285.937,343.829 320.089,378.117 325.78,383.809C329.792,387.82 330.758,398.901 323.766,399.17C316.775,399.439 316.775,401.859 316.775,405.085C316.775,408.312 321.615,403.472 324.842,411.539C328.069,419.606 324.035,436.278 335.329,436.278C342.051,436.278 338.287,426.487 340.169,416.189C342.051,405.892 350.116,406.161 363.831,406.161L363.831,398.901C363.831,398.901 345.684,396.833 340.438,391.587C335.192,386.34 300.103,342.246 292.305,336.731C284.619,331.295 280.17,338.062 284.279,342.171Z" style="fill:url(#_Radial3);"/>
                                    </g>
                                </g>
                            </g>
                        </g>
                        <g transform="matrix(0.473344,0,0,0.473344,128.819,153.576)">
                            <path d="M413.352,803.513C413.352,803.513 624.069,762.553 656.052,712.454" style="fill:none;stroke:rgb(221,102,119);stroke-width:9.13px;"/>
                        </g>
                    </g>
                    <g transform="matrix(0.462702,0,0,0.462702,131.475,157.358)">
                        <circle cx="412.534" cy="814.331" r="9.362" style="fill:rgb(221,102,119);"/>
                    </g>
                </g>
                <g transform="matrix(0.826612,0,0,0.826612,17.0996,-121.659)">
                    <text x="212.662px" y="825.002px" style="font-family:'Bahnschrift', sans-serif;font-size:12px;fill:white;">S<tspan x="223.051px 233.522px 239.827px 251.229px 261.998px 271.877px 276.928px 287.352px 298.098px 308.92px 319.795px 324.846px 335.27px 346.092px 356.838px 367.227px 377.616px 386.369px 396.758px 406.93px 417.354px 426.131px 432.436px 443.182px " y="825.002px 825.002px 825.002px 825.002px 825.002px 825.002px 825.002px 825.002px 825.002px 825.002px 825.002px 825.002px 825.002px 825.002px 825.002px 825.002px 823.912px 825.002px 825.002px 825.002px 825.002px 825.002px 825.002px 825.002px ">PINAL CORD CROSS-SECTION</tspan></text>
                </g>
                <g transform="matrix(1,0,0,1,0,4.73344)">
                    <g transform="matrix(0.473344,0,0,0.473344,137.512,147.275)">
                        <path d="M688.464,637.189C688.464,632.483 684.643,628.663 679.938,628.663L458.882,628.663C454.176,628.663 450.356,632.483 450.356,637.189L450.356,654.241C450.356,658.946 454.176,662.767 458.882,662.767L679.938,662.767C684.643,662.767 688.464,658.946 688.464,654.241L688.464,637.189Z" style="fill:rgb(92,65,157);fill-opacity:0.39;"/>
                    </g>
                    <g transform="matrix(0.826612,0,0,0.826612,182.989,-225.514)">
                        <text x="212.662px" y="825.002px" style="font-family:'Bahnschrift', sans-serif;font-size:12px;fill:white;">L<tspan x="222.541px 233.077px 241.854px 252.026px 262.614px 273.383px 283.262px 288.313px 299.457px 310.203px 321.026px " y="825.002px 825.002px 825.002px 825.002px 825.002px 825.002px 825.002px 825.002px 825.002px 825.002px 825.002px ">ATERAL HORN</tspan></text>
                    </g>
                </g>
            </g>
            <g transform="matrix(1,0,0,1,-276.618,3.23852)">
                <g>
                    <g transform="matrix(0.423765,-0.288037,0.34486,0.507363,-23.3377,378.843)">
                        <path d="M1256.83,350.06C1256.83,325.087 1232.56,304.812 1202.66,304.812L1094.31,304.812C1064.41,304.812 1040.14,325.087 1040.14,350.06L1040.14,1004.53C1040.14,1029.51 1064.41,1049.78 1094.31,1049.78L1202.66,1049.78C1232.56,1049.78 1256.83,1029.51 1256.83,1004.53L1256.83,350.06Z" style="fill:url(#_Linear4);"/>
                    </g>
                    <g transform="matrix(0.471859,-0.00218494,-0.00218494,0.47013,145.359,155.998)">
                        <path d="M851.466,140.57L1394.22,939.081" style="fill:none;stroke:rgb(210,208,187);stroke-width:9.5px;"/>
                    </g>
                    <g transform="matrix(0.471859,-0.00218494,-0.00218494,0.47013,145.359,155.998)">
                        <path d="M851.466,140.57L1394.22,939.081" style="fill:none;stroke:rgb(210,208,187);stroke-width:9.5px;"/>
                    </g>
                    <g transform="matrix(0.471859,-0.00218494,-0.00218494,0.47013,164.293,142.744)">
                        <path d="M851.466,140.57L1394.66,939.588" style="fill:none;stroke:rgb(210,208,187);stroke-width:9.5px;"/>
                    </g>
                    <g transform="matrix(0.471859,-0.00218494,-0.00218494,0.47013,186.956,127.385)">
                        <path d="M851.466,140.57L1394.45,939.614" style="fill:none;stroke:rgb(210,208,187);stroke-width:9.5px;"/>
                    </g>
                </g>
                <g transform="matrix(1,0,0,1,-23.1814,-17.9129)">
                    <g transform="matrix(0.864112,-0.560722,0.523732,0.807108,-37.5584,256.833)">
                        <ellipse cx="417.382" cy="428.025" rx="23.829" ry="34.364" style="fill:url(#_Linear5);"/>
                    </g>
                    <g transform="matrix(0.407241,0.719334,-0.719334,0.407241,984.284,-151.446)">
                        <text x="212.662px" y="825.002px" style="font-family:'Bahnschrift', sans-serif;font-size:12px;fill:white;">C<tspan x="223.086px 234.231px 245px 251.305px 262.707px 267.758px 278.34px 289.11px 300.512px 311.27px 321.149px 327.453px 338.2px " y="825.002px 825.002px 825.002px 825.002px 825.002px 825.002px 825.002px 825.002px 825.002px 825.002px 825.002px 825.002px 825.002px ">HAIN GANGLION</tspan></text>
                    </g>
                    <g transform="matrix(0.864112,-0.560722,0.523732,0.807108,41.81,379.568)">
                        <ellipse cx="417.382" cy="428.025" rx="23.829" ry="34.364" style="fill:url(#_Linear6);"/>
                    </g>
                    <g transform="matrix(0.864112,-0.560722,0.523732,0.807108,90.254,455.326)">
                        <ellipse cx="417.382" cy="428.025" rx="23.829" ry="34.364" style="fill:url(#_Linear7);"/>
                    </g>
                    <g transform="matrix(0.462104,-0.0187344,-0.0187344,0.44212,171.678,200.426)">
                        <path d="M745.687,277.883L1126.41,882.981" style="fill:none;"/>
                        <path d="M737.511,283.078C737.511,283.078 749.257,310.362 771.94,352.679C779.241,366.298 788.136,381.134 797.748,397.264C820.225,434.983 847.583,479.018 876.24,525.263C902.199,567.153 929.509,610.673 955.919,652.507C982.631,694.818 1008.34,735.457 1031.15,770.718C1043.03,789.081 1053.78,806.213 1064.15,820.898C1069.5,828.468 1074.78,835.208 1079.74,841.487C1103.31,871.314 1118.24,888.175 1118.24,888.175C1121.36,893.146 1127.57,894.854 1132.08,891.987C1136.59,889.12 1137.72,882.757 1134.59,877.786C1134.59,877.786 1125.83,857.007 1109.12,822.819C1105.61,815.623 1101.81,807.939 1097.3,799.84C1088.54,784.129 1077.75,767.024 1066.34,748.364C1044.42,712.535 1018.91,671.769 992.325,629.377C966.041,587.463 938.628,544.009 912.1,502.48C882.815,456.635 854.958,412.917 830.688,376.338C820.309,360.695 810.786,346.258 801.672,333.79C773.356,295.052 753.864,272.689 753.864,272.689C750.736,267.718 744.534,266.01 740.021,268.877C735.508,271.744 734.384,278.107 737.511,283.078Z" style="fill:rgb(236,234,215);"/>
                    </g>
                </g>
                <g transform="matrix(0.473344,2.62759e-17,2.62759e-17,0.473344,142.474,151.753)">
                    <path d="M1191.57,757.158C1174.56,731.244 1120.43,682.735 1041.44,716.94C1051.74,683.72 1052.93,658.578 1083.31,665.626C1116.36,673.294 1125.02,667.847 1137.36,633.092C1146.83,606.423 1157.77,599.297 1203.42,602.558C1152.88,530.819 1149.62,530.501 1149.62,530.501C1149.62,530.501 1148.45,585.018 1114.06,584.388C1072.45,583.626 1059.97,595.309 1055.21,620.071C1050.97,642.102 993.987,692.318 978.854,733.244C960.224,783.627 939.076,864.67 973.221,866.723C986.786,867.539 993.047,871.713 998.265,843.539C1003.48,815.365 997.369,730.843 1055.21,748.583C1113.05,766.322 1172.93,829.066 1208,848.756C1225.55,858.609 1265.64,866.723 1265.64,866.723C1265.64,866.723 1228.56,813.515 1191.57,757.158Z" style="fill:rgb(212,209,177);"/>
                </g>
                <g transform="matrix(0.473344,2.62759e-17,2.62759e-17,0.473344,142.474,151.753)">
                    <path d="M1191.57,757.158C1174.56,731.244 1120.43,682.735 1041.44,716.94C1051.74,683.72 1052.93,658.578 1083.31,665.626C1116.36,673.294 1125.02,667.847 1137.36,633.092C1146.83,606.423 1157.77,599.297 1203.42,602.558C1152.88,530.819 1149.62,530.501 1149.62,530.501C1149.62,530.501 1148.45,585.018 1114.06,584.388C1072.45,583.626 1059.97,595.309 1055.21,620.071C1050.97,642.102 993.987,692.318 978.854,733.244C960.224,783.627 939.076,864.67 973.221,866.723C986.786,867.539 993.047,871.713 998.265,843.539C1003.48,815.365 997.369,730.843 1055.21,748.583C1113.05,766.322 1172.93,829.066 1208,848.756C1225.55,858.609 1265.64,866.723 1265.64,866.723C1265.64,866.723 1228.56,813.515 1191.57,757.158Z" style="fill:rgb(212,209,177);"/>
                </g>
                <g transform="matrix(0.473344,2.62759e-17,2.62759e-17,0.473344,142.474,151.753)">
                    <path d="M1191.57,757.158C1174.56,731.244 1120.43,682.735 1041.44,716.94C1051.74,683.72 1052.93,658.578 1083.31,665.626C1116.36,673.294 1125.02,667.847 1137.36,633.092C1146.83,606.423 1157.77,599.297 1203.42,602.558C1152.88,530.819 1149.62,530.501 1149.62,530.501C1149.62,530.501 1148.45,585.018 1114.06,584.388C1072.45,583.626 1059.97,595.309 1055.21,620.071C1050.97,642.102 993.987,692.318 978.854,733.244C960.224,783.627 939.076,864.67 973.221,866.723C986.786,867.539 993.047,871.713 998.265,843.539C1003.48,815.365 997.369,730.843 1055.21,748.583C1113.05,766.322 1172.93,829.066 1208,848.756C1225.55,858.609 1265.64,866.723 1265.64,866.723C1265.64,866.723 1228.56,813.515 1191.57,757.158Z" style="fill:rgb(212,209,177);"/>
                </g>
                <g transform="matrix(1,0,0,1,302.127,-3.33796)">
                    <g transform="matrix(0.473344,0,0,0.473344,137.512,147.275)">
                        <path d="M688.464,637.189C688.464,632.483 684.643,628.663 679.938,628.663L458.882,628.663C454.176,628.663 450.356,632.483 450.356,637.189L450.356,654.241C450.356,658.946 454.176,662.767 458.882,662.767L679.938,662.767C684.643,662.767 688.464,658.946 688.464,654.241L688.464,637.189Z" style="fill:rgb(92,65,157);fill-opacity:0.39;"/>
                    </g>
                    <g transform="matrix(0.826612,0,0,0.826612,186.901,-225.514)">
                        <text x="212.662px" y="825.002px" style="font-family:'Bahnschrift', sans-serif;font-size:12px;fill:white;">D<tspan x="223.537px 234.284px 245.106px 255.26px 266.03px 275.909px 280.959px 291.782px 302.528px 313.274px " y="825.002px 825.002px 825.002px 825.002px 825.002px 825.002px 825.002px 825.002px 825.002px 825.002px ">ORSAL ROOT</tspan></text>
                    </g>
                </g>
                <g transform="matrix(0.473344,0,0,0.473344,142.474,151.753)">
                    <path d="M991.865,827.606C997.005,831.032 992.722,849.83 1024.08,849.83C1026.16,849.83 1020.9,814.256 1018.97,813.483C1015.3,812.015 992.11,803.986 999.452,796.888" style="fill:rgb(212,209,177);"/>
                </g>
                <g transform="matrix(0.473344,0,0,0.473344,142.474,151.753)">
                    <path d="M957.117,852.224C957.117,852.224 975.141,831.67 995.967,853.334C996.726,854.123 992.967,864.158 988.121,866.723C983.658,869.086 968.866,868.583 962.961,862.678C959.6,859.317 957.672,855.752 957.117,852.224Z" style="fill:rgb(166,163,132);"/>
                </g>
                <g transform="matrix(0.473344,0,0,0.473344,142.474,151.753)">
                    <path d="M1393.83,944.627C1375.47,957.928 1317.21,883.669 1214.95,838.996C1166.63,817.887 1091.16,722.411 1036.12,734.64C998.38,743.027 980.384,788.799 998.005,813.483C1008.67,828.424 1017.28,830.923 1042.67,835.818" style="fill:none;stroke:rgb(221,102,119);stroke-width:9.13px;"/>
                </g>
                <g transform="matrix(-0.198745,-0.441224,-0.327293,0.128756,835.322,600.962)">
                    <path d="M255.346,424.12L262.728,438.884L247.964,438.884L255.346,424.12Z" style="fill:rgb(221,102,119);"/>
                </g>
                <g transform="matrix(0.473344,0,0,0.473344,142.474,151.753)">
                    <path d="M1073.05,823.272C1073.05,823.272 1027.7,722.284 1002.64,728.549C966.308,737.635 980.088,848.164 969.649,894.331C964.072,918.998 944.086,939.819 914.625,940.492" style="fill:none;stroke:rgb(221,102,119);stroke-width:9.13px;stroke-dasharray:9.13,27.38,0,0;"/>
                </g>
                <g transform="matrix(1,0,0,1,164.486,35.7748)">
                    <g transform="matrix(0.473344,0,0,0.473344,137.512,147.275)">
                        <path d="M688.464,637.189C688.464,632.483 684.643,628.663 679.938,628.663L458.882,628.663C454.176,628.663 450.356,632.483 450.356,637.189L450.356,654.241C450.356,658.946 454.176,662.767 458.882,662.767L679.938,662.767C684.643,662.767 688.464,658.946 688.464,654.241L688.464,637.189Z" style="fill:rgb(92,65,157);fill-opacity:0.39;"/>
                    </g>
                    <g transform="matrix(0.826612,0,0,0.826612,182.989,-225.514)">
                        <text x="212.662px" y="825.002px" style="font-family:'Bahnschrift', sans-serif;font-size:12px;fill:white;">V<tspan x="222.705px 232.877px 244.28px 253.057px 263.645px 274.414px 284.293px 289.344px 300.166px 310.912px 321.659px " y="825.002px 825.002px 825.002px 825.002px 825.002px 825.002px 825.002px 825.002px 825.002px 825.002px 825.002px ">ENTRAL ROOT</tspan></text>
                    </g>
                </g>
            </g>
            <g transform="matrix(0.889129,0,0,0.889129,105.628,69.5587)">
                <g transform="matrix(0.473344,0,0,0.473344,142.474,151.753)">
                    <path d="M1316.7,694.629C1316.7,694.629 1260.85,913.19 1003.39,912.898" style="fill:none;stroke:white;stroke-width:21px;stroke-linecap:butt;"/>
                </g>
                <g transform="matrix(-0.0123912,-0.44832,0.371757,-0.010275,214.137,928.519)">
                    <path d="M743.149,1019.32L792.23,1117.49L694.069,1117.49L743.149,1019.32Z" style="fill:white;"/>
                </g>
            </g>
            <g transform="matrix(1.2482,0,0,1.2482,-204.899,-162.169)">
                <g transform="matrix(1,0,0,1,629.654,171.278)">
                    <g transform="matrix(0.409039,0,0,0.409039,-276.412,223.085)">
                        <g transform="matrix(1,0,0,1,-34.5859,161.773)">
                            <text x="1245.16px" y="291.277px" style="font-family:'LucidaGrande', 'Lucida Grande', sans-serif;font-weight:500;font-size:12px;fill:white;">S<tspan x="1252.22px 1260.3px 1271.23px 1278.47px 1287.35px 1295.53px 1304.95px 1312.06px 1320.24px 1324.3px 1333.2px 1337.6px 1344.83px 1353.02px 1360.12px 1369.4px 1378.28px 1387.74px 1397.01px 1404.01px 1408.07px 1417.99px 1427.45px 1431.51px 1440.41px 1444.81px 1454.28px 1461.38px 1470.3px 1478.48px 1488.41px 1497.87px " y="291.277px 291.277px 291.277px 291.277px 291.277px 291.277px 291.277px 291.277px 291.277px 291.277px 291.277px 291.277px 291.277px 291.277px 291.277px 291.277px 291.277px 291.277px 291.277px 291.277px 291.277px 291.277px 291.277px 291.277px 291.277px 291.277px 291.277px 291.277px 291.277px 291.277px 291.277px 291.277px ">YMPATHETIC PREGANGLIONIC NEURONS</tspan></text>
                        </g>
                        <g transform="matrix(0.669843,0,0,1,392.008,93.7978)">
                            <path d="M1107.4,354.992L1187.34,354.992" style="fill:none;stroke:rgb(214,100,121);stroke-width:3.49px;stroke-miterlimit:1.5;"/>
                        </g>
                    </g>
                    <g transform="matrix(0.409039,0,0,0.409039,-276.412,229.675)">
                        <g transform="matrix(1,0,0,1,-34.5859,205.637)">
                            <text x="1245.16px" y="291.277px" style="font-family:'LucidaGrande', 'Lucida Grande', sans-serif;font-weight:500;font-size:12px;fill:white;">S<tspan x="1252.22px 1260.3px 1271.23px 1278.47px 1287.35px 1295.53px 1304.95px 1312.06px 1320.24px 1324.3px 1333.2px 1337.6px 1344.83px 1354.76px 1361.82px 1370.01px 1379.28px 1388.16px 1397.62px 1406.89px 1413.89px 1417.95px 1427.87px 1437.34px 1441.39px 1450.3px 1454.69px 1464.16px 1471.26px 1480.18px 1488.37px 1498.29px 1507.75px " y="291.277px 291.277px 291.277px 291.277px 291.277px 291.277px 291.277px 291.277px 291.277px 291.277px 291.277px 291.277px 291.277px 291.277px 291.277px 291.277px 291.277px 291.277px 291.277px 291.277px 291.277px 291.277px 291.277px 291.277px 291.277px 291.277px 291.277px 291.277px 291.277px 291.277px 291.277px 291.277px 291.277px ">YMPATHETIC POSTGANGLIONIC NEURONS</tspan></text>
                        </g>
                        <g transform="matrix(0.669843,0,0,1,392.008,137.662)">
                            <path d="M1107.4,354.992L1187.34,354.992" style="fill:none;stroke:rgb(214,100,121);stroke-width:3.49px;stroke-miterlimit:1.5;stroke-dasharray:3.49,10.46,0,0;"/>
                        </g>
                    </g>
                </g>
                <g transform="matrix(0.409039,0,0,0.409039,347.532,404.814)">
                    <g transform="matrix(1,0,0,1,-34.5859,249.501)">
                        <text x="1245.16px" y="291.277px" style="font-family:'LucidaGrande', 'Lucida Grande', sans-serif;font-weight:500;font-size:12px;fill:white;">S<tspan x="1252.22px 1260.3px 1269.76px 1278.64px 1285.87px 1292.94px " y="291.277px 291.277px 291.277px 291.277px 291.277px 291.277px ">YNAPSE</tspan></text>
                    </g>
                    <g transform="matrix(1,0,0,1,5.69124,-12.8143)">
                        <path d="M1166.92,532.17L1179.74,557.799L1154.11,557.799L1166.92,532.17Z" style="fill:rgb(221,102,119);"/>
                    </g>
                </g>
            </g>
        </g>
    </g>
    <defs>
        <radialGradient id="_Radial2" cx="0" cy="0" r="1" gradientUnits="userSpaceOnUse" gradientTransform="matrix(177.735,52.9444,-49.6212,189.638,365.6,402.648)"><stop offset="0" style="stop-color:rgb(173,173,173);stop-opacity:1"/><stop offset="1" style="stop-color:rgb(113,113,113);stop-opacity:1"/></radialGradient>
        <radialGradient id="_Radial3" cx="0" cy="0" r="1" gradientUnits="userSpaceOnUse" gradientTransform="matrix(-177.735,52.9444,49.6212,189.638,361.315,402.648)"><stop offset="0" style="stop-color:rgb(173,173,173);stop-opacity:1"/><stop offset="1" style="stop-color:rgb(113,113,113);stop-opacity:1"/></radialGradient>
        <linearGradient id="_Linear4" x1="0" y1="0" x2="1" y2="0" gradientUnits="userSpaceOnUse" gradientTransform="matrix(200.557,-8.04493,9.632,167.511,1048.63,595.031)"><stop offset="0" style="stop-color:rgb(236,234,215);stop-opacity:1"/><stop offset="1" style="stop-color:rgb(236,234,215);stop-opacity:1"/></linearGradient>
        <linearGradient id="_Linear5" x1="0" y1="0" x2="1" y2="0" gradientUnits="userSpaceOnUse" gradientTransform="matrix(2.50257,370.316,-345.887,2.67932,415.146,347.904)"><stop offset="0" style="stop-color:rgb(236,234,215);stop-opacity:1"/><stop offset="1" style="stop-color:rgb(236,234,215);stop-opacity:1"/></linearGradient>
        <linearGradient id="_Linear6" x1="0" y1="0" x2="1" y2="0" gradientUnits="userSpaceOnUse" gradientTransform="matrix(2.50257,370.316,-345.887,2.67932,415.369,195.992)"><stop offset="0" style="stop-color:rgb(236,234,215);stop-opacity:1"/><stop offset="1" style="stop-color:rgb(236,234,215);stop-opacity:1"/></linearGradient>
        <linearGradient id="_Linear7" x1="0" y1="0" x2="1" y2="0" gradientUnits="userSpaceOnUse" gradientTransform="matrix(2.50257,370.316,-345.887,2.67932,415.951,102.533)"><stop offset="0" style="stop-color:rgb(236,234,215);stop-opacity:1"/><stop offset="1" style="stop-color:rgb(236,234,215);stop-opacity:1"/></linearGradient>
    </defs>
</svg>
