<?xml version="1.0" encoding="UTF-8" standalone="no"?>
<!DOCTYPE svg PUBLIC "-//W3C//DTD SVG 1.1//EN" "http://www.w3.org/Graphics/SVG/1.1/DTD/svg11.dtd">
<svg width="100%" height="100%" viewBox="0 0 790 160" version="1.1" xmlns="http://www.w3.org/2000/svg" xmlns:xlink="http://www.w3.org/1999/xlink" xml:space="preserve" xmlns:serif="http://www.serif.com/" style="fill-rule:evenodd;clip-rule:evenodd;stroke-linejoin:round;stroke-miterlimit:2;">
    <g transform="matrix(1,0,0,1,-170.963,-334.045)">
        <g>
            <path d="M960,373.796C960,351.857 942.188,334.045 920.249,334.045L210.715,334.045C188.775,334.045 170.963,351.857 170.963,373.796L170.963,453.299C170.963,475.238 188.775,493.05 210.715,493.05L920.249,493.05C942.188,493.05 960,475.238 960,453.299L960,373.796Z" style="fill:rgb(146,208,161);"/>
            <g transform="matrix(5.00631,0,0,5.00631,-2428.55,-1615.7)">
                <text x="541.148px" y="409.821px" style="font-family:'JosefinSans-Medium', 'Josefin Sans';font-weight:500;font-size:12px;fill:white;">S<tspan x="551.132px 562.508px 576.68px 586.064px 596.78px 606.764px 619.196px 630.056px 640.04px 646.772px " y="409.821px 409.821px 409.821px 409.821px 409.821px 409.821px 409.821px 409.821px 409.821px 409.821px ">YMPATHETIC</tspan></text>
            </g>
        </g>
    </g>
</svg>
